<?xml version="1.0" encoding="UTF-8"?>
<svg id="Layer_1" data-name="Layer 1" xmlns="http://www.w3.org/2000/svg" viewBox="0 0 60 60">
  <rect width="60" height="60" fill="#3b3561"/>
  <path d="M8.61,30.03c0,11.54,9.85,20.83,21.96,20.83,5.71,0,11.54-2.38,16.38-2.38,1.63,0,3.14.31,4.45,1.07v-13.97h-13.11v3.55c0,2.64-2.2,3.95-4.27,3.95-4.54,0-8.47-3.05-10.26-7.51h-7.2v-.85h6.89c-.09-.27-.17-.55-.24-.83h-6.65v-.85h6.45c-.05-.27-.1-.55-.14-.83h-6.31v-.85h6.22c-.02-.28-.03-.55-.04-.83h-6.18v-.85h6.18c0-.28.02-.56.04-.83h-6.23v-.85h6.32c.04-.28.09-.56.14-.83h-6.46v-.85h6.65c1.43-5.57,6.03-10.01,13.57-10.01,5.21,0,8.47,1.38,10.98,2.38l1.63-6.21c-4.27-1.51-7.47-3.33-17.57-3.33-13.99,0-23.21,9.35-23.21,20.89Z" fill="#e7d7c1"/>
  <rect x="38.28" y="30.78" width="13.11" height=".57" fill="#e7d7c1"/>
  <rect x="38.28" y="32.21" width="13.11" height=".83" fill="#e7d7c1"/>
  <rect x="38.28" y="33.89" width="13.11" height=".83" fill="#e7d7c1"/>
</svg>