<?xml version="1.0" encoding="UTF-8"?>
<svg id="Layer_1" data-name="Layer 1" xmlns="http://www.w3.org/2000/svg" viewBox="0 0 2500 2200">
  <path d="M1958.11,239.88c-199.61-85.63-449.95-119.23-692.61-115.99-242.66-3.24-493,30.35-692.61,115.99-236,101.24-325.61,190.31-267.63,440.48,97.15,419.23,454.51,1000.19,713.58,1259.77,88.17,88.35,170.79,138.65,246.67,141.21,75.88-2.56,158.5-52.87,246.67-141.21,259.07-259.59,616.43-840.54,713.58-1259.77,57.97-250.17-31.63-339.24-267.63-440.48Z" fill="#3b3561"/>
  <g>
    <path d="M816.67,661.74c0,242.18,206.65,436.99,460.68,436.99,119.78,0,242.19-50.02,343.54-50.02,34.22,0,65.81,6.57,93.45,22.37v-293.05h-275.09v74.55c0,55.29-46.07,82.93-89.5,82.93-95.21,0-177.72-63.99-215.29-157.48h-151.1v-17.84h144.57c-1.88-5.74-3.58-11.57-5.13-17.49h-139.44v-17.84h135.38c-1.14-5.77-2.16-11.59-2.97-17.49h-132.41v-17.84h130.51c-.46-5.77-.73-11.61-.87-17.49h-129.63v-17.84h129.68c.18-5.85.46-11.69.94-17.49h-130.62v-17.84h132.63c.81-5.88,1.81-11.71,2.94-17.49h-135.57v-17.84h139.56c29.97-116.76,126.54-210.04,284.74-210.04,109.25,0,177.69,28.96,230.34,50.02l34.22-130.3c-89.5-31.59-156.63-69.76-368.55-69.76-293.52,0-487,196.12-487,438.31Z" fill="#e7d7c1"/>
    <rect x="1439.24" y="677.53" width="275.09" height="11.99" fill="#e7d7c1"/>
    <rect x="1439.24" y="707.36" width="275.09" height="17.49" fill="#e7d7c1"/>
    <rect x="1439.24" y="742.7" width="275.09" height="17.49" fill="#e7d7c1"/>
  </g>
  <g>
    <path d="M1052.95,1258.09l12.1-5.85c1.36-.38,2.86-.31,4.35-.24l2.4-.18,1.36-.38c.91-.26,2.27-.64,4.42-1.73,1.69-.96,3.84-2.06,5.53-3.02.46-.13,2.4-.18,3.77-.57l35.73-9.04c4.02.34,6.55.62,10.19-.4l3.18-.89,2.73-.77c1.88,1.44,4.4,1.71,6.48,2.11,10.13-2.35,19.27.48,28.86,3.19,6.42.16,23.78,6.08,24.33,13.29l1.62.53,1.29,1.11c1.04.2,2.33,1.31,3.17,2.54,1.22,2.6,2.9,5.08,4.44,7.09,1.35,3.06,2.9,5.08,3.15,5.99l3.43,15.72c1.33,6.49.57,16.03-.88,21.34.64,2.27,1.53,5.46,1.71,7.86-.98,1.75-1.38,3.82-2.49,5.11.06,1.95.57,3.77.49,5.26-.6,3.11-2.82,5.7-4.13,8.03.6,9.15-6,18.85-8.83,27.99-1.44,1.88-6.27,9.12-5.51,11.85-3.14,6.28-7.13,11.32-9.36,17.34-2.6,1.22-4.75,2.31-6.77,3.86.13.46-.07,1.49.06,1.95.13.46.38,1.36.18,2.4-.93,3.69-5.89,10.48-10.78,15.78-2.22,2.58-3.27,5.82-5.36,8.86-11.79,8.7-25.32,28.69-29.9,36.84-1.82.51-2.6,1.22-3.84,2.06-3.65,4.46-8.67,9.3-11.88,13.63-9.26,8.97-19.3,18.66-30.05,27.56-2.15,1.09-4.29,2.19-7.02,2.95-1.51,3.37-3.85,5.5-5.55,6.46-2.47,1.68-3.84,2.06-4.69,4.26-4.36,3.68-9.42,3.13-10.37,10.27-3.44-.02-6.42-.16-9.73.28-1.33,5.77-8.18,14.56-14.55,16.35-.91.26-1.95.06-2.4.18l-.91.26-.13-.46-52.32,30.37c-1.49-.07-1.95.06-2.4.18-3.46,3.42-7.04,6.39-11.79,8.7-.71-.78-1.17-.66-2.2-.85l-.91.25c-2.93,1.8-5.15,4.39-7.62,6.06-2.6,1.22-5.66,2.57-8.71,3.92-2.47,1.68-5.08,2.9-5.98,3.15-1.37.38-1.95.06-2.4.18l-.58-.33c-2.42,3.62-6.64,4.32-10.93,6.5-.33.58-1.69.97-3.26,2.38-2.53-.27-4.35.24-6.17.75-.91.25-5.79,2.11-10.53,4.43-5.2,2.44-10.08,4.3-10.99,4.55-15.92,4.46-32.75,9.19-44.46-11.57l-.46.13-.58-.33q-.46.13-1.49-.07c-.25-.91-.31-2.86-.24-4.35-.13-.46-.25-.91-.71-.78-.25-.91-2.26-2.8-2.64-4.17.07-1.49.6-3.11.67-4.6-2.1-9.22,1.94-24.58,7.17-33.9,2.29-4.08,3.34-7.32,4.96-6.79,1.04.2,2.5,7.15,3.19,11.37,2,1.89,2.64,4.17,3.86,6.77,1.09,2.15,1.93,3.38,4.97,5.47.71.78.97,1.69,1.22,2.6l6.99,3.93,1.36-.38,38.45-114.8c.2-1.04.53-1.62,1.18-2.78l1.31-2.33c.53-1.62,1.51-3.37,2.16-4.53.09-4.93.5-10.44.79-16.41,6.51-4.77,7.25-10.87,6.51-17.03,1.89-2,4.11-4.59,5.22-5.88-5.93-7.17,4.79-24.89,9.05-32.46.47-3.57,2.71-9.59,5.2-14.71-.13-.45-.38-1.36-2.33-1.31l6.98-8.34c-2.33-1.31-.64-2.27.14-2.98-.18-2.4.09-4.93,1.85-7.39l-1.04-.2c1.38-3.82,3.8-7.44,6.47-10.16,1.05-3.24,1.98-6.93,3.62-9.84.8-4.15,1.2-6.22.89-9.08,1.76-2.46,3.33-3.88,4.31-5.63-1.49-.07-1.95.06-3.31.44-.46.13-.91.26-1.49-.07-3.46,3.42-9.57,6.12-11.39,6.63-.45.13-1.36.38-1.95.05l-.46.13c-1.36.38-13.08,7.59-18.35,11.53-13.77,3.37-22.12,12.09-34.09,18.39-4.11,4.59-8.53,6.32-13.35,10.12.17,5.84,11.14,4.72,16.6,3.19,1.75.98,2.71,2.67,3.1,4.04-3.78,4-8.4,6.77-12.31,10.32-5.08,2.89-12.62,7.46-19.06,10.74-5.73,4.06-11.26,7.08-12.17,7.34l-18.32,4.65c-4.68.82-10.64.53-16.61.24l-.44-3.31-.51-1.82.78-.71.78-.71c.65-1.17,1.31-2.33,1.96-3.49.16-6.42,3.36-10.75,7.6-14.89,3.78-4,9.39-8.52,16.17-15.82,2.6-1.22,3.51-1.48,6.7-2.37,2.02-1.55,4.24-4.13,6.13-6.13,2.15-1.09,4.22-.69,5.71-.62,3.46-3.42,7.37-6.97,10.95-9.94,1.82-.51,3.57.47,5.39-.04l36.2-24.87c.91-.25,2.98.15,3.89-.11,4.75-2.31,13.61-9.21,19.08-14.18,12.02-4.35,23.67-10.07,35.77-15.92,2.87-3.75,4.65-9.64,6.36-14.05,1.24-.84,2.15-1.09,3.38-1.93l.91-.26.78-.71.85-2.2c.2-1.04.4-2.07,1.38-3.82,9.24-5.54,8.89-26.04,23.37-28.63,3.51-1.48,6.89-3.41,9.82-5.21,3.51-1.48,5.99-3.15,7.35-3.53.91-.25,3.77-.57,7.21-.55,3.31-.44,6.62-.88,9.93-1.31,1.04.2.71.78.84,1.24l.38,1.36c.58.33.84,1.24,2,1.89-.6,3.11-3.34,7.32-5.24,9.32-3.02,6.73-5.45,13.79-6.32,19.43.58.33,1.17.66.97,1.69,1.49.07,3.77-.57,5.39-.04ZM910.21,1578.27c-.98,1.75-2.55,3.17-3.53,4.92-1.44,1.88-2.09,3.04-1.84,3.95,1.49.07,3.57.47,5.31,1.45l2.27-.64c.91-.26,1.82-.51,3.31-.44,1.16.65,3.24,1.05,5.06.54,1.82-.51,18.92-7.76,28.22-11.35,1.69-.96,2.8-2.26,3.71-2.51,8.97-3.01,18.34-8.09,26.72-11.42,4.82-3.81,12.24-8.83,17.52-12.76l1.37-.38c.13.46.58.33,1.49.07.91-.25,2.09-3.04,6.71-5.81,3.89-.11,7.29-5.48,10.55-7.86,8.2-5.74,14.33-11.87,19.42-18.21,7.8-3.66,14.71-10.5,21.1-15.73,12.26-12.27,27.64-27.38,38.21-38.68,3.53-4.91,7.84-10.54,11.88-13.63,7.44-8.47,15.28-19,20.89-26.96,5.31-10.81,11.6-23.37,15.8-32.89,2.47-1.67,4.24-4.13,4.96-6.79.42-5.51,4.4-10.56,6.31-16,5.87-19.31,15.35-48.46,10.9-67.82-.51-1.82-3.64-11.24-6.41-15.86-.89-3.18-4.77-6.51-5.99-9.11-2.33-1.31-4.2-2.75-5.5-3.86-4.15-.8-7.39-1.85-9.77-5.11-3.38,1.93-6.1-.74-8.88-1.92l-1.75-.98c-.58-.33-1.04-.2-1.17-.66-2.07-.4-4.48-.22-6.42-.16-2.4.18-4.48-.22-7.52-2.31l-24.6,1.5c-4.42,1.73-13.59,5.77-15.41,6.28-1.82.51-3.31.44-4.8.37-2.4.18-3.89.11-4.8.37-7.73,2.17-16.97,7.71-23.87,11.11.57,3.77-5.67,6.01-8.6,7.81-4.2,9.52-6.91,19.11-9.48,29.15-1.36.38-3.18.89-4.42,1.73-.27,2.53-1.2,6.22-1.34,9.21-.93,3.69-2.89,7.19-6.93,10.28-.6,3.11-3.02,6.73-4.2,9.52.18,2.4-.54,5.06-1.27,7.72-4.44,5.17-4.13,8.03-4.87,14.12-1.05,3.24-2.31,7.52-2.2,11.41-1.18,2.78-3.02,6.73-5.36,8.86-2.76,7.64-2.8,14.52-8.47,20.53-.8,4.15-3.74,9.39-6.16,13.01-.07,1.49-.14,2.98.11,3.89-2.62,4.66-4.45,8.61-6.87,12.23-3.74,9.39-3.01,19-10.32,27.92-.14,2.98-1.45,5.31-2.51,8.55l.25.91.51,1.82c-2.22,2.58-5.02,4.84-7.37,6.97.77,2.73,1.53,5.46.35,8.24-5.86,3.61-6.86,8.79-8.18,14.56l-1.38,3.82c.11,3.89-.82,7.59-4.53,10.1-2.69,6.15-2.6,13.48-8.65,18.13.62,5.71-3.78,16.27-4.98,22.49-4.11,4.59-6.98,8.34-10.64,12.8-1.24.84.77,2.73-1.96,3.49Z" fill="#e7d7c1"/>
    <path d="M1395.03,1316.2c-7.95,6.65-14.79,12-22.74,18.64l.35,8.24,1.84,8.31-2.23,18.29-5.85,15.87-14.18,33.41-27.8,46.07-20.61,20.99-24.21,27.4-25.14,18.83-20.72,4.83-7.72-1.27-8.21-6.53-7.03-9.31-2.01-14.16-3.01-8.97.32-25.11,12.46-41.27,17.98-40.86,21.71-34.54,12-13.18,10.57-11.3,27.1-22.32,16.9-6.21,7.39,1.85,3.35,4.95,3.95,14.1,17.79-3.03,5.33-1.99,2.33,1.31c8.97-3,13.39-4.74,22.03-7.16,3.51-1.48,7.93-3.21,10.66-3.97,2.27-.64,3.77-.57,4.02.34.51,1.82-2.49,5.11-6.66,7.75ZM1340.36,1376.67l-6.66,7.75c-3,3.29-5.42,6.92-7.24,7.43-1.37.38-1.22-2.6-1-7.08.22-4.48.78-12.97-.68-19.92-1.68-2.47-5.86-8.66-11.77-22.7-10.6,5.92-18.31,16.91-27.01,29.65l-10.5,9.81-1.01,8.63-6,6.59v12.26c-.41,5.51-4.25,7.57-5.39,15.74-5.65,14.83-8.21,33.7-9.97,48.42.09,7.33.13,12.72-.48,19.27l3.52,10.79,5.62,4.31,3.69.93,21.3-16.77c5.29-7.37,13.06-16.42,18.4-21.84l.62-6.55c7.82-7.1,13-18.37,18.17-26.19l12.25-24.53,7.58-23.71,1.23-13.1-4.68.82Z" fill="#e7d7c1"/>
    <path d="M1462.85,1286.87c.31,2.86,1.02,3.64,1.15,4.09,1.62.53,2.2.86,3.11.6l24.14-13.64c2.6-1.22,7.13.94,9.01,2.38.44,3.31-.49,7.01-.96,10.57-4.11,4.59-6.8,10.74-6.43,15.54-.85,2.2-2.87,3.75-3.73,5.95-1.56,1.42-4.24,4.13-6.26,5.68-1.31,2.33-3.73,5.95-6.27,9.12.06,1.95-.81,7.59-.43,8.95.38,1.36.18,2.4.31,2.86-4.64,6.21-7.16,18.2-14.33,24.13l-10.48,34.34c-3.42,8.81-10.07,16.56-11.22,24.73-2.23,6.02-3.82,10.88-6.38,17.49-1.89,2-4.18,6.08-4.65,9.65-1.51,3.37-3.93,6.99-6.42,12.1.38,1.37-1.85,7.39-2.25,9.46l-13.86,20.57c.06,1.95-.81,7.59-.96,10.57l-6.26,5.68c.89,3.18-.87,5.64-.18,9.86l-10.24,10.72.49,5.26-10.2,16.11-.22,4.48c-6.47,10.16-12.55,18.24-18.96,30.34-1.05,3.24-4.78,9.19-4.14,11.46l-11.33,8.58-11.44,16.95c-5.79,2.11-9.44,6.57-14.79,12l-5.71.62c-2.87,3.75-5.8,5.55-10.68,7.41l-13.17.26-8.94-3.87-5.26.49c-1.93-3.38-6.92-5.42-7.36-8.73-6.79-4.96-10.92-9.2-14.78-15.97-.05-1.95-.44-3.31-.82-4.68-3.5-1.96-5.95-3.73-8.08-6.07l.8-4.15c-5.86-8.66-6.12-21.83-10.55-32.36-.38-1.37.16-6.42-.15-9.28,4.4,1.71,5.68,6.26,8.45,10.88,3.11.6,6.86,3.47,10.63,2.91l.31,2.86c6.95-1.46,15.49,4.49,22.8,7.83,2.87-3.75,9.54.76,13.88.52,7.66-.68,14.95-6.16,25.73-6.23l6.46-6.72,8.64-2.42,18.57-16c1.12-4.73,5.55-6.46,5.63-11.39,6.06-4.64,5.64-11.39,13.26-17.46l9.47-25.71,5.56-9.9.29-5.97c2.31-7.52,10.54-20.13,11.05-30.57,2.98-12.12,14.67-40.42,15.1-49.37,4.51-6.66,3.98-17.31,11.29-26.22,1.14-8.17,3.59-18.67,8.18-26.82.29-5.97,3-15.56,4.27-23.27,2.49-5.11,4.47-12.05,6.71-18.07,6.09-11.52,9.75-15.98,15.73-19.13,5.13-.95,6.17-.75,6.88.03ZM1468.85,1240.05c-1.22-2.6-1.86-4.88-3.33-8.39.53-1.62,2.55-3.17,4.44-5.17-.89-3.18.23-7.92.45-12.39,1.69-.97,5.02-4.84,5.87-7.04,2.31-7.52.81-19.85,9.34-26.17,1.45-5.31,4.47-12.05,7.16-18.2l25.43-12.53c2.27-.64,4.55-1.28,7.08-1l1.66,5.91c-1.96,3.49-3.47,6.86-3.94,10.43-4.38,7.12-8.64,14.69-11.2,21.29.11,3.89-.03,6.88.86,10.06.37,4.8-6.33,7.17-9.33,10.47-3.98,5.04-8.71,16.18-14.82,18.88-3.29,9.26-1.61,11.74-2.68,18.42-1.44,1.88-3.78,4-4.31,5.62-.45.13-1.29-1.11-2.58-2.22l-4.55,1.28-4.31,5.62c-4.04,3.1-4.71,7.7-7.71,10.99-1.55-2.02-.82-4.67.23-7.91,2.11-6.48,3.74-9.39,6.25-17.94Z" fill="#e7d7c1"/>
    <path d="M1698.4,1231.11c-7.95,6.64-14.79,12-22.74,18.64l.35,8.24,1.84,8.31-2.23,18.29-5.85,15.87-14.18,33.41-27.8,46.07-20.61,20.99-24.21,27.4-25.14,18.83-20.72,4.83-7.72-1.27-8.21-6.53-7.03-9.31-2.01-14.16-3.01-8.97.32-25.11,12.46-41.27,17.98-40.86,21.71-34.54,12-13.18,10.57-11.3,27.1-22.32,16.9-6.21,7.39,1.85,3.35,4.95,3.96,14.1,17.79-3.03,5.33-1.99,2.33,1.31c8.97-3.01,13.39-4.74,22.03-7.16,3.51-1.48,7.93-3.21,10.66-3.97,2.27-.64,3.77-.57,4.02.34.51,1.82-2.49,5.11-6.66,7.75ZM1643.73,1291.58l-6.66,7.75c-3,3.29-5.42,6.92-7.24,7.43-1.37.38-1.22-2.6-1-7.08.22-4.48.78-12.97-.68-19.92-1.68-2.47-5.86-8.66-11.77-22.7-10.6,5.92-18.31,16.91-27.01,29.65l-10.5,9.81-1.01,8.63-6,6.59v12.26c-.41,5.51-4.25,7.57-5.39,15.74-5.65,14.83-8.21,33.7-9.97,48.42.09,7.33.13,12.72-.48,19.27l3.52,10.79,5.62,4.31,3.69.93,21.3-16.77c5.29-7.37,13.06-16.42,18.4-21.84l.62-6.55c7.82-7.1,13-18.37,18.17-26.19l12.25-24.53,7.58-23.71,1.23-13.1-4.68.82Z" fill="#e7d7c1"/>
  </g>
</svg>